<?xml version="1.0" encoding="UTF-8"?>
<svg id="NovelWeave_Logo_Dark" xmlns="http://www.w3.org/2000/svg" version="1.1" viewBox="0 0 40 40">
  <defs>
    <!-- Gradient for the woven threads (light colors for dark theme) -->
    <linearGradient id="threadGradientDark" x1="0%" y1="0%" x2="100%" y2="100%">
      <stop offset="0%" style="stop-color:#ecf0f1;stop-opacity:1" />
      <stop offset="100%" style="stop-color:#bdc3c7;stop-opacity:1" />
    </linearGradient>

    <!-- Star sparkle effect -->
    <radialGradient id="starGlowDark" cx="50%" cy="50%" r="50%">
      <stop offset="0%" style="stop-color:#f39c12;stop-opacity:0.9" />
      <stop offset="100%" style="stop-color:#f39c12;stop-opacity:0" />
    </radialGradient>
  </defs>

  <!-- Main woven "N" shape -->
  <g id="woven-n-dark">
    <!-- Left vertical stroke with weave -->
    <path d="M 8 6 Q 9 8, 8 10 L 8 30 Q 7 32, 8 34 L 11 34 Q 12 32, 11 30 L 11 10 Q 10 8, 11 6 Z"
          fill="url(#threadGradientDark)" stroke="#ecf0f1" stroke-width="0.5"/>

    <!-- Diagonal weaving stroke -->
    <path d="M 11 12 Q 14 14, 17 18 L 27 30 Q 28 31, 29 30 L 30 28 Q 29 27, 28 28 L 18 16 Q 15 12, 12 10 Z"
          fill="url(#threadGradientDark)" stroke="#ecf0f1" stroke-width="0.5"/>

    <!-- Right vertical stroke with weave -->
    <path d="M 29 6 Q 30 8, 29 10 L 29 30 Q 28 32, 29 34 L 32 34 Q 33 32, 32 30 L 32 10 Q 31 8, 32 6 Z"
          fill="url(#threadGradientDark)" stroke="#ecf0f1" stroke-width="0.5"/>

    <!-- Cross weave detail -->
    <path d="M 10 14 Q 12 15, 14 16 M 10 20 Q 13 21, 16 22 M 10 26 Q 12 27, 14 28"
          stroke="#bdc3c7" stroke-width="0.8" fill="none" opacity="0.7"/>
  </g>

  <!-- Stardust particles -->
  <g id="stardust-dark" opacity="0.95">
    <!-- Large star -->
    <circle cx="35" cy="8" r="1.5" fill="#f39c12"/>
    <circle cx="35" cy="8" r="2.5" fill="url(#starGlowDark)"/>
    <path d="M 35 6 L 35 10 M 33 8 L 37 8 M 33.8 6.8 L 36.2 9.2 M 33.8 9.2 L 36.2 6.8"
          stroke="#f39c12" stroke-width="0.3" opacity="0.8"/>

    <!-- Medium stars -->
    <circle cx="36" cy="15" r="1" fill="#e67e22"/>
    <circle cx="36" cy="15" r="1.8" fill="url(#starGlowDark)" opacity="0.6"/>

    <circle cx="6" cy="12" r="0.8" fill="#f39c12"/>
    <circle cx="6" cy="12" r="1.5" fill="url(#starGlowDark)" opacity="0.5"/>

    <circle cx="34" cy="22" r="1" fill="#e67e22"/>
    <circle cx="34" cy="22" r="1.8" fill="url(#starGlowDark)" opacity="0.6"/>

    <!-- Small sparkles -->
    <circle cx="38" cy="12" r="0.5" fill="#f39c12" opacity="0.9"/>
    <circle cx="35" cy="28" r="0.5" fill="#e67e22" opacity="0.8"/>
    <circle cx="5" cy="18" r="0.5" fill="#f39c12" opacity="0.7"/>
    <circle cx="7" cy="26" r="0.4" fill="#e67e22" opacity="0.8"/>
    <circle cx="37" cy="35" r="0.4" fill="#f39c12" opacity="0.7"/>
  </g>

  <!-- Pen nib hint at bottom -->
  <g id="pen-hint-dark" opacity="0.7">
    <path d="M 18 36 Q 20 37, 22 36 L 22 38 Q 20 39, 18 38 Z"
          fill="#ecf0f1" stroke="#bdc3c7" stroke-width="0.3"/>
    <path d="M 20 36 L 20 34" stroke="#bdc3c7" stroke-width="0.5"/>
  </g>

  <!-- Flowing ink trails -->
  <g id="ink-trails-dark" opacity="0.4">
    <path d="M 12 35 Q 15 36, 18 35.5" stroke="#ecf0f1" stroke-width="0.5" fill="none"/>
    <path d="M 22 35.5 Q 25 36, 28 35" stroke="#ecf0f1" stroke-width="0.5" fill="none"/>
  </g>
</svg>
